<svg fill="#000000" xmlns="http://www.w3.org/2000/svg"  viewBox="0 0 128 128" width="128px" height="128px"><path d="M24.3 114.1c-.8 1.4-.3 3.3 1.1 4.1.5.3 1 .4 1.5.4 1 0 2.1-.5 2.6-1.5C36.6 104.7 49.8 97 64 97c14.2 0 27.4 7.7 34.5 20.1.8 1.4 2.7 1.9 4.1 1.1s1.9-2.7 1.1-4.1C95.6 99.9 80.4 91 64 91S32.4 99.9 24.3 114.1zM65.4 80C53.8 80.8 44.1 71.6 44 60.1c0-1.6-1.2-3-2.8-3.1-1.7-.1-3.2 1.3-3.2 3 0 14.3 11.7 26 26 26 13.9 0 25.3-10.9 26-24.7 0-.1 0-.2 0-.3V47v-3-1c0-7.2-5.4-13.1-12.4-13.9l-.4-.6c-2.9-4.1-7.7-6.6-12.7-6.6H56c-12.7 0-23 10.3-23 23l0 0c0 1.7 1.3 3 3 3h5.2c.1 0 .1 0 .2 0 11.5 0 23.2 0 31.6-7.5v.1c.4-.4.8-.7 1.1-1.1 1.1-1.2 3-1.4 4.2-.3 1.3 1.1 1.4 3.1.2 4.4-.5.5-.9.9-1.4 1.4-1.3 1.3-.8 3.5.9 4.2l0 0c1 .4 2.1.6 3.2.7 1.5.2 2.7 1.4 2.7 3v6.8C84 70.1 76 79.2 65.4 80z"/></svg>