<?xml version="1.0" encoding="UTF-8"?>
<svg xmlns="http://www.w3.org/2000/svg" xmlns:xlink="http://www.w3.org/1999/xlink" width="90pt" height="90pt" viewBox="0 0 90 90" version="1.1">
<g id="surface7072626">
<path style=" stroke:none;fill-rule:nonzero;fill:rgb(96.078432%,96.078432%,96.078432%);fill-opacity:1;" d="M 54 57 L 54 51 C 55.351562 50.332031 59.210938 45.734375 59.617188 42.144531 C 60.679688 42.0625 62.347656 41.089844 62.839844 37.238281 C 63.101562 35.171875 62.050781 34.011719 61.414062 33.644531 C 61.414062 33.644531 63 30.636719 63 27.003906 C 63 19.71875 60.140625 13.503906 54 13.503906 C 54 13.503906 51.867188 9.003906 45 9.003906 C 32.273438 9.003906 27 17.164062 27 27.003906 C 27 30.316406 28.585938 33.644531 28.585938 33.644531 C 27.949219 34.011719 26.898438 35.175781 27.160156 37.238281 C 27.652344 41.089844 29.320312 42.0625 30.382812 42.144531 C 30.789062 45.734375 34.648438 50.332031 36 51 L 36 57 C 33 66 9 60 9 81 L 81 81 C 81 60 57 66 54 57 Z M 54 57 "/>
</g>
</svg>
